<?xml version="1.0" encoding="UTF-8"?>
<svg id="_图层_1" data-name="图层_1" xmlns="http://www.w3.org/2000/svg" version="1.1" viewBox="0 0 228.1 173">
  <!-- Generator: Adobe Illustrator 29.1.0, SVG Export Plug-In . SVG Version: 2.1.0 Build 142)  -->
  <defs>
    <style>
      .st0 {
        fill: #e83828;
      }
    </style>
  </defs>
  <path class="st0" d="M223.4,86.2c5.1-12.3,6.8-29.1,1.3-43.1-7-17.9-23.3-29-40.6-36.7-5.9-2.6-12.2-5.3-18.8-6.4,9,4.2,16.4,9.9,23,16.6,6.5,6.6,12.4,14.5,14.1,25.5,2.2,15.2-4.8,27.8-13.4,35.5-9.2,8.2-22.2,11.8-38,11.5-4.7,10.7-10,20.7-14.7,31.3,6.6.2,13.2.5,20.1.3,9.1,17.6,18.2,35,27.5,52.4,12.8-.2,26.4.4,38.6-.3-10.1-18.7-20.6-37.1-30.3-56.2,14-6.3,25.3-15.7,31.3-30.3"/>
  <path class="st0" d="M186.3,44.4c.4,0,.5.5.6,0-17.9-19.4-43.1-31.4-71.5-40.2-39.6,12.8-75.2,32.6-97.7,63.5-5.6,7.7-10.2,15.7-13.7,26.5-3.4,10.4-6,23.3-1.9,34.2,3.4,9.2,11.3,15.8,20.1,20.1,9.1,4.5,20.3,7.1,32.6,7.4-9.3-3.7-17.5-9.2-22.4-16.9-5.4-8.7-5.9-21-2.2-31.9,3-9.1,8.4-17.6,14.4-24.9,17.8-22,40.8-37.3,74.4-43.4,22-4,50.6-5.3,67.4,5.8"/>
  <path class="st0" d="M157.9,50.8c-10.9-.7-21.6-.6-31.6,1.3-16,3-31.5,9.8-41.5,18.2,0,0-1.8.4-.6,1,3.9-.6,14.1-3.3,16.3,1.9,1.5,3.7-2.3,10.2-3.8,13.4-13.5,28.5-27.9,59.2-40.2,86.5h66.4c-5.2-4.4-15.2-10.1-12.8-21.1.9-3.8,3.7-8.4,5.8-12.8,10.1-21.3,20.3-42.4,30.3-62.9,4.2-8.7,8.3-17.2,11.8-25.5"/>
  <path class="st0" d="M224.7,43.1c5.5,14,3.8,30.8-1.3,43.1-6,14.6-17.3,24.1-31.3,30.3,9.8,19.1,20.2,37.5,30.3,56.2-12.2.8-25.9.1-38.6.3-9.3-17.4-18.4-34.8-27.5-52.4-7,.1-13.5-.2-20.1-.3,4.7-10.6,10-20.6,14.7-31.3,15.9.3,28.8-3.3,38-11.5,8.6-7.6,15.7-20.3,13.4-35.4-1.6-11.1-7.6-18.9-14.1-25.5C181.6,9.9,174.3,4.2,165.3,0c6.7,1.1,13,3.8,18.8,6.4,17.3,7.7,33.5,18.8,40.6,36.7"/>
  <path class="st0" d="M187,44.4c-.1.5-.3,0-.6,0-16.8-11-45.3-9.8-67.4-5.8-33.6,6.1-56.6,21.4-74.4,43.4-5.9,7.3-11.3,15.8-14.4,24.9-3.6,10.9-3.2,23.2,2.2,31.9,4.8,7.8,13.1,13.3,22.4,16.9-12.3-.2-23.5-2.9-32.6-7.4-8.9-4.4-16.7-10.9-20.1-20.1-4-10.9-1.5-23.7,1.9-34.2,3.5-10.8,8.1-18.8,13.7-26.5C40.2,36.8,75.8,17,115.4,4.2c28.5,8.8,53.7,20.9,71.6,40.2"/>
  <path class="st0" d="M126.3,52.1c10-1.8,20.7-2,31.6-1.3-3.5,8.3-7.6,16.9-11.8,25.5-10,20.5-20.2,41.6-30.3,62.9-2.1,4.3-4.9,9-5.8,12.8-2.5,11,7.5,16.6,12.8,21.1H56.4c12.3-27.4,26.8-58,40.2-86.5,1.5-3.2,5.4-9.7,3.8-13.4-2.2-5.3-12.4-2.5-16.3-1.9-1.2-.6.6-1,.6-1,10-8.4,25.5-15.3,41.5-18.2"/>
</svg>